<?xml version="1.0" encoding="UTF-8" standalone="no"?>
<!DOCTYPE svg PUBLIC "-//W3C//DTD SVG 1.1//EN" "http://www.w3.org/Graphics/SVG/1.1/DTD/svg11.dtd">
<svg width="100%" height="100%" viewBox="0 0 543 296" version="1.1" xmlns="http://www.w3.org/2000/svg" xmlns:xlink="http://www.w3.org/1999/xlink" xml:space="preserve" xmlns:serif="http://www.serif.com/" style="fill-rule:evenodd;clip-rule:evenodd;stroke-linejoin:round;stroke-miterlimit:2;">
    <g transform="matrix(4.16667,0,0,4.16667,264.846,-607.331)">
        <g transform="matrix(1,0,0,-1,-63.563,0.61328)">
            <path d="M65.59,-161.093C68.594,-162.838 73.111,-175.926 75.85,-184.105C69.914,-189.719 66.481,-190.196 65.469,-190.167L65.173,-190.162C63.964,-190.121 60.666,-189.328 55.202,-184.169C57.982,-175.963 62.568,-162.83 65.59,-161.093ZM10.794,-169.434C9.412,-165.007 8.85,-161.515 8.85,-158.993C8.85,-156.529 9.386,-154.991 10.217,-154.412C14.786,-151.229 28.944,-167.734 37.403,-177.595C37.403,-177.595 45.03,-186.355 45.113,-186.45C42.318,-194.598 38.254,-205.701 35.553,-207.108C31.334,-206.829 16.821,-188.741 10.794,-169.434ZM5.176,-147.174C-7.145,-155.755 5.841,-182.088 10.115,-189.954C13.983,-197.075 27.482,-219.952 38.761,-215.356C44.221,-213.133 47.777,-205.421 52.106,-193.165C56.702,-196.867 61.012,-198.846 64.967,-198.979L65.285,-198.985C69.422,-199.104 74.001,-197.108 78.92,-193.132C83.207,-205.401 86.743,-213.124 92.226,-215.356C102.826,-219.677 115.029,-199.044 119.783,-189.974C124.064,-181.806 137.143,-154.574 125.701,-147.101C117.313,-141.624 107.705,-150.108 104.545,-152.898C102.719,-154.511 102.546,-157.297 104.158,-159.123C105.771,-160.949 108.557,-161.122 110.383,-159.51C115.297,-155.17 119.122,-153.339 120.878,-154.485C121.095,-154.695 121.426,-155.627 121.426,-157.512C121.426,-160.249 120.729,-164.995 117.978,-172.459C110.803,-191.923 99.026,-206.562 95.401,-207.088C92.692,-205.616 88.679,-194.529 85.921,-186.396C86.399,-185.847 91.813,-179.637 91.813,-179.637L93.451,-177.727C94.164,-176.894 94.514,-175.872 94.514,-174.854C94.514,-173.611 93.992,-172.375 92.975,-171.504C91.125,-169.919 88.345,-170.13 86.76,-171.979L85.112,-173.903C85.112,-173.903 83.855,-175.344 82.664,-176.711C77.833,-162.587 73.403,-152.162 65.592,-152.162C57.776,-152.162 53.3,-162.626 48.399,-176.794C46.284,-174.364 44.098,-171.852 44.098,-171.852C29.796,-155.181 16.288,-139.435 5.176,-147.174Z" style="fill-rule:nonzero;"/>
        </g>
        <g transform="matrix(1,0,0,-1,-63.563,-28.1987)">
            <path d="M98.51,-189.427C95.928,-189.427 93.836,-191.519 93.836,-194.099C93.836,-196.68 95.928,-198.771 98.51,-198.771C101.089,-198.771 103.181,-196.68 103.181,-194.099C103.181,-191.519 101.089,-189.427 98.51,-189.427Z" style="fill-rule:nonzero;"/>
        </g>
    </g>
</svg>
